<svg width="53" height="50" viewBox="0 0 53 50" fill="none" xmlns="http://www.w3.org/2000/svg">
<g clip-path="url(#clip0_2012_24)">
<path d="M15.4792 11.3301C15.4792 14.4653 17.7316 17.8933 17.0615 21.2697C16.7482 22.8487 15.8581 24.4336 14.6985 25.4119C12.0029 27.6855 11.7451 26.8521 8.06488 27.996C6.38183 28.5191 6.02703 28.6944 4.78027 29.6211C-0.844151 33.802 -1.01107 41.9245 3.45039 46.4175C4.00943 46.9804 5.71012 48.2724 6.38197 48.553C8.61814 49.4873 9.60253 49.6723 12.0036 49.6723C14.5869 49.6723 17.5262 48.1253 19.3038 46.3341C20.4403 45.1889 21.2378 43.7509 21.7498 42.2427C22.7691 39.2434 22.484 37.4722 21.5318 34.2001C21.2359 33.1836 20.4393 32.303 20.2424 30.4529C19.8673 26.9263 22.8596 23.7019 26.48 23.6717C30.7046 23.6363 34.162 27.9371 32.2428 32.6419C31.7539 33.8403 31.5962 33.308 30.9698 36.0996C30.4827 38.2703 30.5072 39.7336 31.171 41.8741C32.3767 45.7625 35.5105 48.7696 39.5062 49.4679C42.2356 49.9448 44.0009 49.6324 46.5835 48.5778C47.6636 48.1368 49.4394 46.6806 50.1394 45.7677C51.2984 44.2562 51.8732 43.3251 52.3176 41.4638C53.3432 37.168 52.2315 33.2446 49.0998 30.2945C44.813 26.2565 41.6666 28.9915 37.7602 24.8173C35.8702 22.7978 35.3839 19.9057 36.1957 17.2177C37.06 14.3558 37.5529 14.2831 37.5529 10.6897C37.5529 9.68234 36.8391 7.38068 36.5022 6.56531C35.8332 4.94686 34.3356 3.28384 32.6344 2.13276C30.4607 0.661686 28.4262 0.315247 25.8806 0.315247C23.286 0.315247 20.3594 1.8626 18.5757 3.65366C16.7542 5.48255 15.4794 8.75265 15.4794 11.3302L15.4792 11.3301Z" fill="#334861"/>
<path d="M15.7919 11.3301C15.7919 12.6255 16.1959 13.9951 16.6074 15.3905C17.1799 17.3314 17.7669 19.3213 17.368 21.3312C17.2044 22.1564 16.8879 22.985 16.46 23.7351C16.0361 24.4782 15.5023 25.1442 14.8988 25.6532C13.0417 27.2196 12.2996 27.3611 10.8826 27.6311C10.2064 27.7599 9.36825 27.9198 8.15633 28.2964C7.32892 28.5536 6.83027 28.724 6.39575 28.939C5.96511 29.152 5.57553 29.4207 4.9647 29.8747C4.51692 30.2076 4.10491 30.5657 3.72909 30.9449C1.80708 32.883 0.798492 35.3846 0.644975 37.9132C0.491457 40.4439 1.19301 43.0007 2.69087 45.0468C2.98675 45.4511 3.31368 45.8355 3.67025 46.1945C3.96028 46.4865 4.57259 46.9849 5.18038 47.4277C5.70132 47.8072 6.21232 48.1422 6.5003 48.2623C7.59941 48.721 8.38788 48.9954 9.19074 49.154C9.99213 49.3121 10.822 49.3571 12.0034 49.3571C13.1888 49.3571 14.457 49.0164 15.6477 48.472C16.961 47.8715 18.1768 47.0237 19.0824 46.1111C19.6117 45.5777 20.0652 44.9785 20.448 44.3381C20.8628 43.6441 21.1959 42.9018 21.454 42.1416C21.9501 40.6817 22.1291 39.5245 22.0684 38.3396C22.0071 37.1444 21.7019 35.903 21.2321 34.2887C21.138 33.9651 20.9801 33.6391 20.8086 33.2847C20.4639 32.5729 20.0666 31.7519 19.932 30.4862C19.9116 30.294 19.9006 30.0989 19.8991 29.9023C19.8857 28.2658 20.5438 26.7263 21.6192 25.5532C22.6927 24.3821 24.184 23.5728 25.8389 23.3942C26.0457 23.3719 26.2591 23.3595 26.4774 23.3577C27.3675 23.3504 28.225 23.526 29.0105 23.8513C30.186 24.3382 31.2021 25.1613 31.9267 26.2082C32.652 27.256 33.0862 28.5283 33.0976 29.9124C33.105 30.8254 32.9287 31.7861 32.5311 32.7613C32.3668 33.1641 32.2401 33.3788 32.1218 33.5794C31.8892 33.9736 31.691 34.3097 31.2739 36.1686C31.0363 37.2288 30.923 38.1133 30.9503 38.9883C30.9774 39.8612 31.1453 40.7363 31.469 41.7806C32.0633 43.6975 33.1383 45.3933 34.5583 46.687C35.9386 47.9445 37.6469 48.8235 39.5587 49.1575C40.8923 49.3905 41.9868 49.4312 43.0583 49.2856C44.1329 49.1395 45.1973 48.8041 46.466 48.286C46.9612 48.0839 47.6186 47.6506 48.2436 47.1566C48.9165 46.625 49.5454 46.0282 49.8924 45.5757C50.4614 44.8337 50.8863 44.2355 51.2202 43.6004C51.5528 42.9681 51.7994 42.2925 52.0145 41.3912C52.5155 39.2926 52.4942 37.2876 51.9648 35.4502C51.4386 33.6235 50.4078 31.9571 48.8871 30.5247C46.843 28.5992 45.0545 28.2609 43.3146 27.9321C41.4234 27.5745 39.5862 27.227 37.5328 25.0328C36.5656 23.9993 35.9504 22.7465 35.6746 21.4077C35.3894 20.0232 35.4685 18.5469 35.8973 17.1265C36.1306 16.3537 36.3338 15.791 36.5083 15.307C36.9803 13.9984 37.24 13.2786 37.24 10.6897C37.24 10.2885 37.1167 9.65765 36.9501 9.00331C36.719 8.09594 36.4047 7.14847 36.2137 6.68601C35.8984 5.92296 35.3873 5.14569 34.7531 4.41876C34.0921 3.6614 33.3011 2.96255 32.4607 2.3938C31.4063 1.68016 30.3867 1.23952 29.3235 0.977823C28.2554 0.714847 27.1326 0.630459 25.8805 0.630459C24.6918 0.630459 23.4258 0.970145 22.2379 1.51287C20.9214 2.1144 19.7049 2.9634 18.7955 3.8766C17.9252 4.75034 17.1816 5.97116 16.651 7.28675C16.1089 8.63078 15.7921 10.0679 15.7921 11.3302L15.7919 11.3301ZM16.0087 15.5677C15.5837 14.1265 15.1664 12.7118 15.1664 11.3301C15.1664 9.98788 15.5003 8.46705 16.0718 7.05015C16.6318 5.66162 17.4232 4.36658 18.3554 3.4307C19.3154 2.46674 20.5969 1.57167 21.9812 0.939148C23.2454 0.36144 24.5996 0 25.8803 0C27.1736 0 28.3413 0.0890093 29.47 0.366986C30.6036 0.646028 31.6885 1.11439 32.8076 1.87176C33.6957 2.47264 34.5286 3.20796 35.2221 4.00258C35.8992 4.77856 36.4477 5.61548 36.7903 6.44457C36.9876 6.92225 37.313 7.90434 37.5535 8.84811C37.7328 9.55215 37.8654 10.2381 37.8654 10.6896C37.8654 13.3847 37.5919 14.1427 37.0947 15.5212C36.9205 16.0044 36.7176 16.5665 36.4935 17.3087C36.0951 18.6281 36.0212 19.9976 36.2851 21.2794C36.5376 22.5071 37.1012 23.655 37.9871 24.6017C39.9008 26.6467 41.6396 26.9757 43.4293 27.3139C45.2574 27.6595 47.1366 28.0149 49.3121 30.0642C50.9166 31.5755 52.0056 33.3385 52.5635 35.2753C53.123 37.2173 53.147 39.3305 52.6204 41.5363C52.3914 42.4961 52.1281 43.217 51.7724 43.8933C51.4183 44.5667 50.9759 45.1903 50.386 45.9596C50.0093 46.4509 49.3386 47.0893 48.6271 47.6514C47.9593 48.1793 47.2484 48.6458 46.7006 48.8693C45.387 49.4058 44.277 49.754 43.1412 49.9086C42.0024 50.0634 40.8492 50.0219 39.4535 49.778C37.4226 49.4232 35.6074 48.489 34.1403 47.1524C32.6368 45.7827 31.4998 43.9905 30.8726 41.9675C30.5327 40.8713 30.3561 39.9441 30.3271 39.0078C30.2979 38.0737 30.4163 37.1408 30.6653 36.0305C31.1048 34.0717 31.3254 33.6979 31.5843 33.2591C31.693 33.0746 31.8096 32.8771 31.9543 32.5224C32.3194 31.6271 32.4813 30.7488 32.4745 29.9174C32.4643 28.6656 32.0717 27.515 31.416 26.5677C30.7596 25.6195 29.8389 24.8737 28.7735 24.4325C28.0623 24.1379 27.2866 23.9788 26.4824 23.9855C26.2915 23.9872 26.0985 23.9986 25.905 24.0196C24.4057 24.1813 23.0533 24.9159 22.0786 25.9791C21.1057 27.0404 20.5102 28.4277 20.5222 29.8972C20.5236 30.0665 20.5336 30.2411 20.5526 30.4195C20.6751 31.572 21.0477 32.3416 21.3707 33.0088C21.5527 33.3849 21.7204 33.7311 21.831 34.1113C22.3134 35.7689 22.6271 37.0495 22.6916 38.3075C22.7566 39.5759 22.5684 40.8046 22.0453 42.3435C21.7726 43.147 21.4209 43.9309 20.9833 44.6629C20.5742 45.3473 20.0899 45.9874 19.5248 46.5567C18.5701 47.5188 17.2884 48.4125 15.9041 49.0455C14.6372 49.6248 13.2807 49.9873 12.0034 49.9873C10.784 49.9873 9.92073 49.9395 9.07081 49.7718C8.2223 49.6044 7.40017 49.3188 6.26199 48.8434C5.92666 48.7025 5.37065 48.3411 4.81613 47.9371C4.18181 47.475 3.53895 46.9511 3.23015 46.6402C2.84918 46.2565 2.50109 45.8475 2.18721 45.4186C0.602009 43.2532 -0.140463 40.5499 0.0217324 37.8762C0.184139 35.2006 1.25171 32.553 3.28645 30.5013C3.68591 30.0984 4.12247 29.7187 4.59537 29.3671C5.23117 28.8945 5.64283 28.6117 6.1218 28.3748C6.59696 28.1398 7.11762 27.9611 7.97297 27.6952C9.21911 27.3079 10.0763 27.1445 10.7675 27.0128C12.0781 26.763 12.7646 26.632 14.4977 25.1702C15.0467 24.7071 15.533 24.1002 15.9198 23.4222C16.3124 22.7341 16.6033 21.9709 16.7545 21.2079C17.1235 19.3482 16.5591 17.4342 16.0085 15.5675L16.0087 15.5677Z" fill="#FEFEFE"/>
</g>
<defs>
<clipPath id="clip0_2012_24">
<rect width="53" height="50" fill="white"/>
</clipPath>
</defs>
</svg>
