<svg width="82" height="34" viewBox="0 0 82 34" fill="none" xmlns="http://www.w3.org/2000/svg">
<path fill-rule="evenodd" clip-rule="evenodd" d="M36.0299 10.9443C36.5264 8.15054 39.6467 8.25952 39.6467 10.759C39.6467 11.1626 36.4801 10.9443 36.0299 10.9443ZM38.1366 7.72473C33.1965 7.72473 32.4956 16.9788 38.2202 16.9788C39.6561 16.9788 40.9318 16.1894 41.0237 15.7532L40.9321 14.9743C38.3873 16.28 35.8074 15.5756 35.9366 12.0278H41.3781C41.6904 9.95476 40.6985 7.72473 38.1363 7.72473H38.1366ZM46.5161 12.9159C46.5004 13.394 46.4746 14.3751 46.4722 14.943C46.2692 15.4552 43.7373 16.2803 43.7373 14.4117C43.7373 13.1022 45.0551 12.8595 46.5157 12.9156L46.5161 12.9159ZM48.1298 14.896C48.1298 11.4129 49.034 7.72473 45.1474 7.72473C44.0956 7.72473 43.1186 8.27136 42.6253 8.85036L42.7704 9.71522C44.1294 8.95307 46.5404 8.49836 46.5404 10.9843V11.784C40.4802 11.5696 41.2956 16.9788 44.4713 16.9788C45.3852 16.9788 46.1752 16.5098 46.617 16.0512C46.9711 17.2747 48.6458 17.1166 49.4651 16.5763V15.7922C48.4219 15.7922 48.1298 15.726 48.1298 14.896ZM55.1155 7.72473C54.5376 7.72473 53.7267 8.11677 53.1821 8.61987V7.53114L50.4427 8.51925V9.23927C52.006 9.55785 51.5409 9.72218 51.5409 14.6189C51.5409 15.9443 51.4803 15.7591 50.4264 15.9231V16.7779H54.516V15.9154C52.7967 15.7236 53.1821 16.4903 53.1821 9.81479C53.9871 9.19644 55.0069 9.07946 55.8676 9.52059L56.0549 7.87618L55.1152 7.72473H55.1155ZM62.7429 15.0642C61.3607 16.0105 58.0987 15.9266 58.0987 12.3171C58.0987 8.6439 61.831 7.53323 61.9919 10.5045H63.0152L63.0939 8.20416C55.3154 5.36065 54.0989 16.9788 60.4363 16.9788C61.8558 16.9788 63.0698 16.1303 63.1429 15.7111L62.9891 14.8946L62.7422 15.0642H62.7429ZM71.8845 14.6189C71.8845 11.2103 72.5714 7.72473 69.1217 7.72473C68.3115 7.72473 67.4832 8.1589 66.9007 8.61674V4L64.1606 5.10788V5.82894C65.2414 6.05142 65.2605 6.05421 65.2605 6.98591V14.6192C65.2605 15.9443 65.2006 15.7584 64.145 15.9234V16.7782H68.0152V15.9234C66.4767 15.6818 66.9001 16.0087 66.9001 9.72218C68.0114 9.0241 70.2432 8.36258 70.2432 11.0703C70.2432 16.2103 70.5506 15.701 69.1283 15.9234V16.7782H73V15.9234C71.9691 15.7615 71.8845 15.9426 71.8845 14.6192V14.6189ZM20.7069 10.9443C21.2009 8.15228 24.323 8.25882 24.323 10.759C24.323 11.1626 21.1571 10.9443 20.7069 10.9443ZM22.813 7.72473C17.8731 7.72473 17.1712 16.9788 22.8972 16.9788C24.331 16.9788 25.6067 16.1898 25.7007 15.7532L25.6095 14.9743C23.0609 16.2803 20.4841 15.5735 20.6132 12.0278H26.0555C26.3674 9.95789 25.3765 7.72473 22.8123 7.72473H22.8133H22.813ZM30.4125 11.3739C26.0562 9.66856 31.4967 7.00227 31.7717 10.5038H32.787L32.7449 8.24176C30.2882 7.23276 27.2459 7.71568 27.2459 10.2047C27.2459 13.4626 31.4866 12.5058 31.4866 14.4462C31.4866 15.2842 30.854 15.826 29.8742 15.826C28.4387 15.826 28.2559 15.1435 28.1041 13.9222H27.0989L27.1567 16.524C29.79 17.3962 33.0095 17.0411 33.0095 14.2383C33.0095 12.3885 31.5691 11.8251 30.4121 11.3739H30.4125ZM15.2678 8.66444C15.2678 10.7099 13.5092 10.8388 12.0259 10.7179V6.73418C13.5652 6.64192 15.2678 6.63287 15.2678 8.66444ZM16.939 14.7407C17.3738 15.3751 18.0392 15.7716 18.9361 15.9297C18.9361 16.1863 18.9361 16.4426 18.9361 16.6992C16.2764 17.963 14.3723 14.387 13.0168 11.923C12.6255 11.923 12.3296 11.9216 12.0263 11.9024C12.0263 16.1703 11.7373 15.6453 13.5972 15.9029V16.7779H9V15.9106C10.0877 15.7048 10.3352 15.8545 10.3352 14.584V7.76407C10.3352 6.4929 10.0863 6.64157 9 6.4365V5.56955L13.5036 5.54309C18.2279 5.54309 17.9017 10.6285 14.8078 11.657C15.4196 12.7359 16.1897 13.8497 16.939 14.74V14.7407Z" fill="#33E6DA"/>
<path fill-rule="evenodd" clip-rule="evenodd" d="M62.2029 19.3555H61.3168C61.0135 20.479 60.7311 21.0643 59.5314 21.7199V22.5847H60.5619V28.1885C60.5619 31.7611 64.5346 30.1957 64.646 29.5408L64.5206 28.8964C61.5218 29.9896 62.2025 28.1398 62.2025 22.5851H64.6522V21.3818H62.2025V19.3555H62.2029ZM55.9929 26.3645C55.971 27.0399 55.9563 27.7157 55.9501 28.3915C55.745 28.9058 53.2152 29.7268 53.2152 27.8602C53.2152 26.5514 54.532 26.3081 55.9929 26.3641V26.3645ZM57.6077 28.3445C57.6077 24.8621 58.5119 21.1733 54.6253 21.1733C53.5773 21.1733 52.5916 21.7202 52.1031 22.2989L52.2483 23.1637C53.6069 22.4016 56.0173 21.9469 56.0173 24.4328V25.2326C49.9588 25.0181 50.7724 30.4273 53.9498 30.4273C54.8638 30.4273 55.6534 29.9583 56.0956 29.4998C56.448 30.7229 58.1251 30.5662 58.9429 30.0248V29.2407C57.8998 29.2407 57.6077 29.1746 57.6077 28.3445ZM66.9986 24.3928C67.493 21.5991 70.6157 21.7091 70.6157 24.2076C70.6157 24.6111 67.4488 24.3928 66.9986 24.3928ZM69.104 21.1733C64.1641 21.1733 63.4615 30.4273 69.1899 30.4273C70.6241 30.4273 71.8998 29.638 71.992 29.2017L71.9015 28.4229C69.3536 29.7285 66.7754 29.0235 66.9042 25.4763H72.3489C72.6424 23.38 71.6696 21.1733 69.104 21.1733ZM48.8815 25.0331L46.6421 24.9732V25.8405C48.1538 26.1274 47.9759 25.7729 47.9759 29.0095C46.3736 29.834 42.6385 29.4991 42.6385 24.6407C42.6385 19.2775 48.1688 18.4673 48.4634 22.2038H49.5131L49.3937 19.3962C39.2455 15.7258 37.9406 30.4614 45.9743 30.4614C47.5668 30.4614 48.9769 30.1017 49.668 29.8058C49.668 25.759 49.4184 26.1162 50.817 25.8391V24.9739L48.8815 25.0331Z" fill="#0E9DF0"/>
</svg>
